<svg xmlns="http://www.w3.org/2000/svg" id="politoed-favicon(1)" width="18" height="25" viewBox="0 0 18 25" preserveAspectRatio="xMidYMid meet" rendering="geometricPrecision"><rect id="10-1" x="9" y="0" width="1" height="1" shape-rendering="geometricPrecision" style="fill:#000000;opacity:255;"></rect><rect id="11-1" x="10" y="0" width="1" height="1" shape-rendering="geometricPrecision" style="fill:#000000;opacity:255;"></rect><rect id="12-1" x="11" y="0" width="1" height="1" shape-rendering="geometricPrecision" style="fill:#000000;opacity:255;"></rect><rect id="9-2" x="8" y="1" width="1" height="1" shape-rendering="geometricPrecision" style="fill:#000000;opacity:255;"></rect><rect id="10-2" x="9" y="1" width="1" height="1" shape-rendering="geometricPrecision" style="fill:#63adef;opacity:255;"></rect><rect id="11-2" x="10" y="1" width="1" height="1" shape-rendering="geometricPrecision" style="fill:#63adef;opacity:255;"></rect><rect id="12-2" x="11" y="1" width="1" height="1" shape-rendering="geometricPrecision" style="fill:#63adef;opacity:255;"></rect><rect id="13-2" x="12" y="1" width="1" height="1" shape-rendering="geometricPrecision" style="fill:#000000;opacity:255;"></rect><rect id="8-3" x="7" y="2" width="1" height="1" shape-rendering="geometricPrecision" style="fill:#000000;opacity:255;"></rect><rect id="9-3" x="8" y="2" width="1" height="1" shape-rendering="geometricPrecision" style="fill:#63adef;opacity:255;"></rect><rect id="10-3" x="9" y="2" width="1" height="1" shape-rendering="geometricPrecision" style="fill:#000000;opacity:255;"></rect><rect id="11-3" x="10" y="2" width="1" height="1" shape-rendering="geometricPrecision" style="fill:#414141;opacity:255;"></rect><rect id="12-3" x="11" y="2" width="1" height="1" shape-rendering="geometricPrecision" style="fill:#3173a5;opacity:255;"></rect><rect id="13-3" x="12" y="2" width="1" height="1" shape-rendering="geometricPrecision" style="fill:#63adef;opacity:255;"></rect><rect id="14-3" x="13" y="2" width="1" height="1" shape-rendering="geometricPrecision" style="fill:#000000;opacity:255;"></rect><rect id="7-4" x="6" y="3" width="1" height="1" shape-rendering="geometricPrecision" style="fill:#000000;opacity:255;"></rect><rect id="8-4" x="7" y="3" width="1" height="1" shape-rendering="geometricPrecision" style="fill:#63adef;opacity:255;"></rect><rect id="9-4" x="8" y="3" width="1" height="1" shape-rendering="geometricPrecision" style="fill:#000000;opacity:255;"></rect><rect id="11-4" x="10" y="3" width="1" height="1" shape-rendering="geometricPrecision" style="fill:#000000;opacity:255;"></rect><rect id="12-4" x="11" y="3" width="1" height="1" shape-rendering="geometricPrecision" style="fill:#63adef;opacity:255;"></rect><rect id="13-4" x="12" y="3" width="1" height="1" shape-rendering="geometricPrecision" style="fill:#63adef;opacity:255;"></rect><rect id="14-4" x="13" y="3" width="1" height="1" shape-rendering="geometricPrecision" style="fill:#000000;opacity:255;"></rect><rect id="7-5" x="6" y="4" width="1" height="1" shape-rendering="geometricPrecision" style="fill:#000000;opacity:255;"></rect><rect id="8-5" x="7" y="4" width="1" height="1" shape-rendering="geometricPrecision" style="fill:#63adef;opacity:255;"></rect><rect id="9-5" x="8" y="4" width="1" height="1" shape-rendering="geometricPrecision" style="fill:#000000;opacity:255;"></rect><rect id="12-5" x="11" y="4" width="1" height="1" shape-rendering="geometricPrecision" style="fill:#000000;opacity:255;"></rect><rect id="13-5" x="12" y="4" width="1" height="1" shape-rendering="geometricPrecision" style="fill:#000000;opacity:255;"></rect><rect id="7-6" x="6" y="5" width="1" height="1" shape-rendering="geometricPrecision" style="fill:#000000;opacity:255;"></rect><rect id="8-6" x="7" y="5" width="1" height="1" shape-rendering="geometricPrecision" style="fill:#000000;opacity:255;"></rect><rect id="9-6" x="8" y="5" width="1" height="1" shape-rendering="geometricPrecision" style="fill:#414141;opacity:255;"></rect><rect id="10-6" x="9" y="5" width="1" height="1" shape-rendering="geometricPrecision" style="fill:#000000;opacity:255;"></rect><rect id="11-6" x="10" y="5" width="1" height="1" shape-rendering="geometricPrecision" style="fill:#000000;opacity:255;"></rect><rect id="12-6" x="11" y="5" width="1" height="1" shape-rendering="geometricPrecision" style="fill:#000000;opacity:255;"></rect><rect id="6-7" x="5" y="6" width="1" height="1" shape-rendering="geometricPrecision" style="fill:#000000;opacity:255;"></rect><rect id="7-7" x="6" y="6" width="1" height="1" shape-rendering="geometricPrecision" style="fill:#5a9c42;opacity:255;"></rect><rect id="8-7" x="7" y="6" width="1" height="1" shape-rendering="geometricPrecision" style="fill:#73c53a;opacity:255;"></rect><rect id="9-7" x="8" y="6" width="1" height="1" shape-rendering="geometricPrecision" style="fill:#8ce631;opacity:255;"></rect><rect id="10-7" x="9" y="6" width="1" height="1" shape-rendering="geometricPrecision" style="fill:#8ce631;opacity:255;"></rect><rect id="11-7" x="10" y="6" width="1" height="1" shape-rendering="geometricPrecision" style="fill:#8ce631;opacity:255;"></rect><rect id="12-7" x="11" y="6" width="1" height="1" shape-rendering="geometricPrecision" style="fill:#73c53a;opacity:255;"></rect><rect id="13-7" x="12" y="6" width="1" height="1" shape-rendering="geometricPrecision" style="fill:#000000;opacity:255;"></rect><rect id="14-7" x="13" y="6" width="1" height="1" shape-rendering="geometricPrecision" style="fill:#000000;opacity:255;"></rect><rect id="5-8" x="4" y="7" width="1" height="1" shape-rendering="geometricPrecision" style="fill:#000000;opacity:255;"></rect><rect id="6-8" x="5" y="7" width="1" height="1" shape-rendering="geometricPrecision" style="fill:#73c53a;opacity:255;"></rect><rect id="7-8" x="6" y="7" width="1" height="1" shape-rendering="geometricPrecision" style="fill:#8ce631;opacity:255;"></rect><rect id="8-8" x="7" y="7" width="1" height="1" shape-rendering="geometricPrecision" style="fill:#8ce631;opacity:255;"></rect><rect id="9-8" x="8" y="7" width="1" height="1" shape-rendering="geometricPrecision" style="fill:#8ce631;opacity:255;"></rect><rect id="10-8" x="9" y="7" width="1" height="1" shape-rendering="geometricPrecision" style="fill:#8ce631;opacity:255;"></rect><rect id="11-8" x="10" y="7" width="1" height="1" shape-rendering="geometricPrecision" style="fill:#8ce631;opacity:255;"></rect><rect id="12-8" x="11" y="7" width="1" height="1" shape-rendering="geometricPrecision" style="fill:#8ce631;opacity:255;"></rect><rect id="13-8" x="12" y="7" width="1" height="1" shape-rendering="geometricPrecision" style="fill:#8ce631;opacity:255;"></rect><rect id="14-8" x="13" y="7" width="1" height="1" shape-rendering="geometricPrecision" style="fill:#ffffff;opacity:255;"></rect><rect id="15-8" x="14" y="7" width="1" height="1" shape-rendering="geometricPrecision" style="fill:#000000;opacity:255;"></rect><rect id="4-9" x="3" y="8" width="1" height="1" shape-rendering="geometricPrecision" style="fill:#000000;opacity:255;"></rect><rect id="5-9" x="4" y="8" width="1" height="1" shape-rendering="geometricPrecision" style="fill:#73c53a;opacity:255;"></rect><rect id="6-9" x="5" y="8" width="1" height="1" shape-rendering="geometricPrecision" style="fill:#8ce631;opacity:255;"></rect><rect id="7-9" x="6" y="8" width="1" height="1" shape-rendering="geometricPrecision" style="fill:#8ce631;opacity:255;"></rect><rect id="8-9" x="7" y="8" width="1" height="1" shape-rendering="geometricPrecision" style="fill:#8ce631;opacity:255;"></rect><rect id="9-9" x="8" y="8" width="1" height="1" shape-rendering="geometricPrecision" style="fill:#73c53a;opacity:255;"></rect><rect id="10-9" x="9" y="8" width="1" height="1" shape-rendering="geometricPrecision" style="fill:#ffffff;opacity:255;"></rect><rect id="11-9" x="10" y="8" width="1" height="1" shape-rendering="geometricPrecision" style="fill:#73c53a;opacity:255;"></rect><rect id="12-9" x="11" y="8" width="1" height="1" shape-rendering="geometricPrecision" style="fill:#8ce631;opacity:255;"></rect><rect id="13-9" x="12" y="8" width="1" height="1" shape-rendering="geometricPrecision" style="fill:#bdef7b;opacity:255;"></rect><rect id="14-9" x="13" y="8" width="1" height="1" shape-rendering="geometricPrecision" style="fill:#8ce631;opacity:255;"></rect><rect id="15-9" x="14" y="8" width="1" height="1" shape-rendering="geometricPrecision" style="fill:#000000;opacity:255;"></rect><rect id="4-10" x="3" y="9" width="1" height="1" shape-rendering="geometricPrecision" style="fill:#000000;opacity:255;"></rect><rect id="5-10" x="4" y="9" width="1" height="1" shape-rendering="geometricPrecision" style="fill:#8ce631;opacity:255;"></rect><rect id="6-10" x="5" y="9" width="1" height="1" shape-rendering="geometricPrecision" style="fill:#8ce631;opacity:255;"></rect><rect id="7-10" x="6" y="9" width="1" height="1" shape-rendering="geometricPrecision" style="fill:#8ce631;opacity:255;"></rect><rect id="8-10" x="7" y="9" width="1" height="1" shape-rendering="geometricPrecision" style="fill:#5a9c42;opacity:255;"></rect><rect id="9-10" x="8" y="9" width="1" height="1" shape-rendering="geometricPrecision" style="fill:#ffffff;opacity:255;"></rect><rect id="10-10" x="9" y="9" width="1" height="1" shape-rendering="geometricPrecision" style="fill:#000000;opacity:255;"></rect><rect id="11-10" x="10" y="9" width="1" height="1" shape-rendering="geometricPrecision" style="fill:#bdbdbd;opacity:255;"></rect><rect id="12-10" x="11" y="9" width="1" height="1" shape-rendering="geometricPrecision" style="fill:#8ce631;opacity:255;"></rect><rect id="13-10" x="12" y="9" width="1" height="1" shape-rendering="geometricPrecision" style="fill:#8ce631;opacity:255;"></rect><rect id="14-10" x="13" y="9" width="1" height="1" shape-rendering="geometricPrecision" style="fill:#bdef7b;opacity:255;"></rect><rect id="15-10" x="14" y="9" width="1" height="1" shape-rendering="geometricPrecision" style="fill:#8ce631;opacity:255;"></rect><rect id="16-10" x="15" y="9" width="1" height="1" shape-rendering="geometricPrecision" style="fill:#000000;opacity:255;"></rect><rect id="3-11" x="2" y="10" width="1" height="1" shape-rendering="geometricPrecision" style="fill:#000000;opacity:255;"></rect><rect id="4-11" x="3" y="10" width="1" height="1" shape-rendering="geometricPrecision" style="fill:#73c53a;opacity:255;"></rect><rect id="5-11" x="4" y="10" width="1" height="1" shape-rendering="geometricPrecision" style="fill:#8ce631;opacity:255;"></rect><rect id="6-11" x="5" y="10" width="1" height="1" shape-rendering="geometricPrecision" style="fill:#8ce631;opacity:255;"></rect><rect id="7-11" x="6" y="10" width="1" height="1" shape-rendering="geometricPrecision" style="fill:#8ce631;opacity:255;"></rect><rect id="8-11" x="7" y="10" width="1" height="1" shape-rendering="geometricPrecision" style="fill:#5a9c42;opacity:255;"></rect><rect id="9-11" x="8" y="10" width="1" height="1" shape-rendering="geometricPrecision" style="fill:#ffffff;opacity:255;"></rect><rect id="10-11" x="9" y="10" width="1" height="1" shape-rendering="geometricPrecision" style="fill:#943a29;opacity:255;"></rect><rect id="11-11" x="10" y="10" width="1" height="1" shape-rendering="geometricPrecision" style="fill:#000000;opacity:255;"></rect><rect id="12-11" x="11" y="10" width="1" height="1" shape-rendering="geometricPrecision" style="fill:#8ce631;opacity:255;"></rect><rect id="13-11" x="12" y="10" width="1" height="1" shape-rendering="geometricPrecision" style="fill:#8ce631;opacity:255;"></rect><rect id="14-11" x="13" y="10" width="1" height="1" shape-rendering="geometricPrecision" style="fill:#73c53a;opacity:255;"></rect><rect id="15-11" x="14" y="10" width="1" height="1" shape-rendering="geometricPrecision" style="fill:#8ce631;opacity:255;"></rect><rect id="16-11" x="15" y="10" width="1" height="1" shape-rendering="geometricPrecision" style="fill:#000000;opacity:255;"></rect><rect id="17-11" x="16" y="10" width="1" height="1" shape-rendering="geometricPrecision" style="fill:#000000;opacity:255;"></rect><rect id="3-12" x="2" y="11" width="1" height="1" shape-rendering="geometricPrecision" style="fill:#000000;opacity:255;"></rect><rect id="4-12" x="3" y="11" width="1" height="1" shape-rendering="geometricPrecision" style="fill:#73c53a;opacity:255;"></rect><rect id="5-12" x="4" y="11" width="1" height="1" shape-rendering="geometricPrecision" style="fill:#8ce631;opacity:255;"></rect><rect id="6-12" x="5" y="11" width="1" height="1" shape-rendering="geometricPrecision" style="fill:#73c53a;opacity:255;"></rect><rect id="7-12" x="6" y="11" width="1" height="1" shape-rendering="geometricPrecision" style="fill:#f76b9c;opacity:255;"></rect><rect id="8-12" x="7" y="11" width="1" height="1" shape-rendering="geometricPrecision" style="fill:#f76b9c;opacity:255;"></rect><rect id="9-12" x="8" y="11" width="1" height="1" shape-rendering="geometricPrecision" style="fill:#5a9c42;opacity:255;"></rect><rect id="10-12" x="9" y="11" width="1" height="1" shape-rendering="geometricPrecision" style="fill:#73c53a;opacity:255;"></rect><rect id="11-12" x="10" y="11" width="1" height="1" shape-rendering="geometricPrecision" style="fill:#8ce631;opacity:255;"></rect><rect id="12-12" x="11" y="11" width="1" height="1" shape-rendering="geometricPrecision" style="fill:#8ce631;opacity:255;"></rect><rect id="13-12" x="12" y="11" width="1" height="1" shape-rendering="geometricPrecision" style="fill:#8ce631;opacity:255;"></rect><rect id="14-12" x="13" y="11" width="1" height="1" shape-rendering="geometricPrecision" style="fill:#8ce631;opacity:255;"></rect><rect id="15-12" x="14" y="11" width="1" height="1" shape-rendering="geometricPrecision" style="fill:#73c53a;opacity:255;"></rect><rect id="16-12" x="15" y="11" width="1" height="1" shape-rendering="geometricPrecision" style="fill:#e6ff94;opacity:255;"></rect><rect id="17-12" x="16" y="11" width="1" height="1" shape-rendering="geometricPrecision" style="fill:#414141;opacity:255;"></rect><rect id="18-12" x="17" y="11" width="1" height="1" shape-rendering="geometricPrecision" style="fill:#000000;opacity:255;"></rect><rect id="3-13" x="2" y="12" width="1" height="1" shape-rendering="geometricPrecision" style="fill:#000000;opacity:255;"></rect><rect id="4-13" x="3" y="12" width="1" height="1" shape-rendering="geometricPrecision" style="fill:#73c53a;opacity:255;"></rect><rect id="5-13" x="4" y="12" width="1" height="1" shape-rendering="geometricPrecision" style="fill:#73c53a;opacity:255;"></rect><rect id="6-13" x="5" y="12" width="1" height="1" shape-rendering="geometricPrecision" style="fill:#5a9c42;opacity:255;"></rect><rect id="7-13" x="6" y="12" width="1" height="1" shape-rendering="geometricPrecision" style="fill:#f76b9c;opacity:255;"></rect><rect id="8-13" x="7" y="12" width="1" height="1" shape-rendering="geometricPrecision" style="fill:#f76b9c;opacity:255;"></rect><rect id="9-13" x="8" y="12" width="1" height="1" shape-rendering="geometricPrecision" style="fill:#e6ff94;opacity:255;"></rect><rect id="10-13" x="9" y="12" width="1" height="1" shape-rendering="geometricPrecision" style="fill:#dec529;opacity:255;"></rect><rect id="11-13" x="10" y="12" width="1" height="1" shape-rendering="geometricPrecision" style="fill:#73c53a;opacity:255;"></rect><rect id="12-13" x="11" y="12" width="1" height="1" shape-rendering="geometricPrecision" style="fill:#73c53a;opacity:255;"></rect><rect id="13-13" x="12" y="12" width="1" height="1" shape-rendering="geometricPrecision" style="fill:#73c53a;opacity:255;"></rect><rect id="14-13" x="13" y="12" width="1" height="1" shape-rendering="geometricPrecision" style="fill:#73c53a;opacity:255;"></rect><rect id="15-13" x="14" y="12" width="1" height="1" shape-rendering="geometricPrecision" style="fill:#414141;opacity:255;"></rect><rect id="16-13" x="15" y="12" width="1" height="1" shape-rendering="geometricPrecision" style="fill:#dec529;opacity:255;"></rect><rect id="17-13" x="16" y="12" width="1" height="1" shape-rendering="geometricPrecision" style="fill:#e6ff94;opacity:255;"></rect><rect id="18-13" x="17" y="12" width="1" height="1" shape-rendering="geometricPrecision" style="fill:#000000;opacity:255;"></rect><rect id="3-14" x="2" y="13" width="1" height="1" shape-rendering="geometricPrecision" style="fill:#000000;opacity:255;"></rect><rect id="4-14" x="3" y="13" width="1" height="1" shape-rendering="geometricPrecision" style="fill:#414141;opacity:255;"></rect><rect id="5-14" x="4" y="13" width="1" height="1" shape-rendering="geometricPrecision" style="fill:#73c53a;opacity:255;"></rect><rect id="6-14" x="5" y="13" width="1" height="1" shape-rendering="geometricPrecision" style="fill:#73c53a;opacity:255;"></rect><rect id="7-14" x="6" y="13" width="1" height="1" shape-rendering="geometricPrecision" style="fill:#5a9c42;opacity:255;"></rect><rect id="8-14" x="7" y="13" width="1" height="1" shape-rendering="geometricPrecision" style="fill:#5a9c42;opacity:255;"></rect><rect id="9-14" x="8" y="13" width="1" height="1" shape-rendering="geometricPrecision" style="fill:#dec529;opacity:255;"></rect><rect id="10-14" x="9" y="13" width="1" height="1" shape-rendering="geometricPrecision" style="fill:#e6ff94;opacity:255;"></rect><rect id="11-14" x="10" y="13" width="1" height="1" shape-rendering="geometricPrecision" style="fill:#e6ff94;opacity:255;"></rect><rect id="12-14" x="11" y="13" width="1" height="1" shape-rendering="geometricPrecision" style="fill:#e6ff94;opacity:255;"></rect><rect id="13-14" x="12" y="13" width="1" height="1" shape-rendering="geometricPrecision" style="fill:#dec529;opacity:255;"></rect><rect id="14-14" x="13" y="13" width="1" height="1" shape-rendering="geometricPrecision" style="fill:#414141;opacity:255;"></rect><rect id="15-14" x="14" y="13" width="1" height="1" shape-rendering="geometricPrecision" style="fill:#e6ff94;opacity:255;"></rect><rect id="16-14" x="15" y="13" width="1" height="1" shape-rendering="geometricPrecision" style="fill:#73c53a;opacity:255;"></rect><rect id="17-14" x="16" y="13" width="1" height="1" shape-rendering="geometricPrecision" style="fill:#000000;opacity:255;"></rect><rect id="2-15" x="1" y="14" width="1" height="1" shape-rendering="geometricPrecision" style="fill:#000000;opacity:255;"></rect><rect id="3-15" x="2" y="14" width="1" height="1" shape-rendering="geometricPrecision" style="fill:#e6ff94;opacity:255;"></rect><rect id="4-15" x="3" y="14" width="1" height="1" shape-rendering="geometricPrecision" style="fill:#414141;opacity:255;"></rect><rect id="5-15" x="4" y="14" width="1" height="1" shape-rendering="geometricPrecision" style="fill:#414141;opacity:255;"></rect><rect id="6-15" x="5" y="14" width="1" height="1" shape-rendering="geometricPrecision" style="fill:#73c53a;opacity:255;"></rect><rect id="7-15" x="6" y="14" width="1" height="1" shape-rendering="geometricPrecision" style="fill:#73c53a;opacity:255;"></rect><rect id="8-15" x="7" y="14" width="1" height="1" shape-rendering="geometricPrecision" style="fill:#73c53a;opacity:255;"></rect><rect id="9-15" x="8" y="14" width="1" height="1" shape-rendering="geometricPrecision" style="fill:#5a9c42;opacity:255;"></rect><rect id="10-15" x="9" y="14" width="1" height="1" shape-rendering="geometricPrecision" style="fill:#5a9c42;opacity:255;"></rect><rect id="11-15" x="10" y="14" width="1" height="1" shape-rendering="geometricPrecision" style="fill:#414141;opacity:255;"></rect><rect id="12-15" x="11" y="14" width="1" height="1" shape-rendering="geometricPrecision" style="fill:#414141;opacity:255;"></rect><rect id="13-15" x="12" y="14" width="1" height="1" shape-rendering="geometricPrecision" style="fill:#414141;opacity:255;"></rect><rect id="14-15" x="13" y="14" width="1" height="1" shape-rendering="geometricPrecision" style="fill:#5a9c42;opacity:255;"></rect><rect id="15-15" x="14" y="14" width="1" height="1" shape-rendering="geometricPrecision" style="fill:#5a9c42;opacity:255;"></rect><rect id="16-15" x="15" y="14" width="1" height="1" shape-rendering="geometricPrecision" style="fill:#000000;opacity:255;"></rect><rect id="1-16" x="0" y="15" width="1" height="1" shape-rendering="geometricPrecision" style="fill:#000000;opacity:255;"></rect><rect id="2-16" x="1" y="15" width="1" height="1" shape-rendering="geometricPrecision" style="fill:#5a9c42;opacity:255;"></rect><rect id="3-16" x="2" y="15" width="1" height="1" shape-rendering="geometricPrecision" style="fill:#dec529;opacity:255;"></rect><rect id="4-16" x="3" y="15" width="1" height="1" shape-rendering="geometricPrecision" style="fill:#e6ff94;opacity:255;"></rect><rect id="5-16" x="4" y="15" width="1" height="1" shape-rendering="geometricPrecision" style="fill:#414141;opacity:255;"></rect><rect id="6-16" x="5" y="15" width="1" height="1" shape-rendering="geometricPrecision" style="fill:#73c53a;opacity:255;"></rect><rect id="7-16" x="6" y="15" width="1" height="1" shape-rendering="geometricPrecision" style="fill:#73c53a;opacity:255;"></rect><rect id="8-16" x="7" y="15" width="1" height="1" shape-rendering="geometricPrecision" style="fill:#73c53a;opacity:255;"></rect><rect id="9-16" x="8" y="15" width="1" height="1" shape-rendering="geometricPrecision" style="fill:#73c53a;opacity:255;"></rect><rect id="10-16" x="9" y="15" width="1" height="1" shape-rendering="geometricPrecision" style="fill:#73c53a;opacity:255;"></rect><rect id="11-16" x="10" y="15" width="1" height="1" shape-rendering="geometricPrecision" style="fill:#73c53a;opacity:255;"></rect><rect id="12-16" x="11" y="15" width="1" height="1" shape-rendering="geometricPrecision" style="fill:#414141;opacity:255;"></rect><rect id="13-16" x="12" y="15" width="1" height="1" shape-rendering="geometricPrecision" style="fill:#5a9c42;opacity:255;"></rect><rect id="14-16" x="13" y="15" width="1" height="1" shape-rendering="geometricPrecision" style="fill:#5a9c42;opacity:255;"></rect><rect id="15-16" x="14" y="15" width="1" height="1" shape-rendering="geometricPrecision" style="fill:#000000;opacity:255;"></rect><rect id="1-17" x="0" y="16" width="1" height="1" shape-rendering="geometricPrecision" style="fill:#000000;opacity:255;"></rect><rect id="2-17" x="1" y="16" width="1" height="1" shape-rendering="geometricPrecision" style="fill:#e6ff94;opacity:255;"></rect><rect id="3-17" x="2" y="16" width="1" height="1" shape-rendering="geometricPrecision" style="fill:#8ce631;opacity:255;"></rect><rect id="4-17" x="3" y="16" width="1" height="1" shape-rendering="geometricPrecision" style="fill:#8ce631;opacity:255;"></rect><rect id="5-17" x="4" y="16" width="1" height="1" shape-rendering="geometricPrecision" style="fill:#8ce631;opacity:255;"></rect><rect id="6-17" x="5" y="16" width="1" height="1" shape-rendering="geometricPrecision" style="fill:#73c53a;opacity:255;"></rect><rect id="7-17" x="6" y="16" width="1" height="1" shape-rendering="geometricPrecision" style="fill:#73c53a;opacity:255;"></rect><rect id="8-17" x="7" y="16" width="1" height="1" shape-rendering="geometricPrecision" style="fill:#73c53a;opacity:255;"></rect><rect id="9-17" x="8" y="16" width="1" height="1" shape-rendering="geometricPrecision" style="fill:#e6ff94;opacity:255;"></rect><rect id="10-17" x="9" y="16" width="1" height="1" shape-rendering="geometricPrecision" style="fill:#e6ff94;opacity:255;"></rect><rect id="11-17" x="10" y="16" width="1" height="1" shape-rendering="geometricPrecision" style="fill:#e6ff94;opacity:255;"></rect><rect id="12-17" x="11" y="16" width="1" height="1" shape-rendering="geometricPrecision" style="fill:#dec529;opacity:255;"></rect><rect id="13-17" x="12" y="16" width="1" height="1" shape-rendering="geometricPrecision" style="fill:#414141;opacity:255;"></rect><rect id="14-17" x="13" y="16" width="1" height="1" shape-rendering="geometricPrecision" style="fill:#000000;opacity:255;"></rect><rect id="2-18" x="1" y="17" width="1" height="1" shape-rendering="geometricPrecision" style="fill:#000000;opacity:255;"></rect><rect id="3-18" x="2" y="17" width="1" height="1" shape-rendering="geometricPrecision" style="fill:#8ce631;opacity:255;"></rect><rect id="4-18" x="3" y="17" width="1" height="1" shape-rendering="geometricPrecision" style="fill:#8ce631;opacity:255;"></rect><rect id="5-18" x="4" y="17" width="1" height="1" shape-rendering="geometricPrecision" style="fill:#73c53a;opacity:255;"></rect><rect id="6-18" x="5" y="17" width="1" height="1" shape-rendering="geometricPrecision" style="fill:#5a9c42;opacity:255;"></rect><rect id="7-18" x="6" y="17" width="1" height="1" shape-rendering="geometricPrecision" style="fill:#73c53a;opacity:255;"></rect><rect id="8-18" x="7" y="17" width="1" height="1" shape-rendering="geometricPrecision" style="fill:#e6ff94;opacity:255;"></rect><rect id="9-18" x="8" y="17" width="1" height="1" shape-rendering="geometricPrecision" style="fill:#e6ff94;opacity:255;"></rect><rect id="10-18" x="9" y="17" width="1" height="1" shape-rendering="geometricPrecision" style="fill:#73c53a;opacity:255;"></rect><rect id="11-18" x="10" y="17" width="1" height="1" shape-rendering="geometricPrecision" style="fill:#73c53a;opacity:255;"></rect><rect id="12-18" x="11" y="17" width="1" height="1" shape-rendering="geometricPrecision" style="fill:#e6ff94;opacity:255;"></rect><rect id="13-18" x="12" y="17" width="1" height="1" shape-rendering="geometricPrecision" style="fill:#414141;opacity:255;"></rect><rect id="14-18" x="13" y="17" width="1" height="1" shape-rendering="geometricPrecision" style="fill:#73c53a;opacity:255;"></rect><rect id="15-18" x="14" y="17" width="1" height="1" shape-rendering="geometricPrecision" style="fill:#000000;opacity:255;"></rect><rect id="3-19" x="2" y="18" width="1" height="1" shape-rendering="geometricPrecision" style="fill:#000000;opacity:255;"></rect><rect id="4-19" x="3" y="18" width="1" height="1" shape-rendering="geometricPrecision" style="fill:#414141;opacity:255;"></rect><rect id="5-19" x="4" y="18" width="1" height="1" shape-rendering="geometricPrecision" style="fill:#5a9c42;opacity:255;"></rect><rect id="6-19" x="5" y="18" width="1" height="1" shape-rendering="geometricPrecision" style="fill:#8ce631;opacity:255;"></rect><rect id="7-19" x="6" y="18" width="1" height="1" shape-rendering="geometricPrecision" style="fill:#5a9c42;opacity:255;"></rect><rect id="8-19" x="7" y="18" width="1" height="1" shape-rendering="geometricPrecision" style="fill:#e6ff94;opacity:255;"></rect><rect id="9-19" x="8" y="18" width="1" height="1" shape-rendering="geometricPrecision" style="fill:#73c53a;opacity:255;"></rect><rect id="10-19" x="9" y="18" width="1" height="1" shape-rendering="geometricPrecision" style="fill:#e6ff94;opacity:255;"></rect><rect id="11-19" x="10" y="18" width="1" height="1" shape-rendering="geometricPrecision" style="fill:#73c53a;opacity:255;"></rect><rect id="12-19" x="11" y="18" width="1" height="1" shape-rendering="geometricPrecision" style="fill:#dec529;opacity:255;"></rect><rect id="13-19" x="12" y="18" width="1" height="1" shape-rendering="geometricPrecision" style="fill:#414141;opacity:255;"></rect><rect id="14-19" x="13" y="18" width="1" height="1" shape-rendering="geometricPrecision" style="fill:#5a9c42;opacity:255;"></rect><rect id="15-19" x="14" y="18" width="1" height="1" shape-rendering="geometricPrecision" style="fill:#000000;opacity:255;"></rect><rect id="2-20" x="1" y="19" width="1" height="1" shape-rendering="geometricPrecision" style="fill:#000000;opacity:255;"></rect><rect id="3-20" x="2" y="19" width="1" height="1" shape-rendering="geometricPrecision" style="fill:#73c53a;opacity:255;"></rect><rect id="4-20" x="3" y="19" width="1" height="1" shape-rendering="geometricPrecision" style="fill:#8ce631;opacity:255;"></rect><rect id="5-20" x="4" y="19" width="1" height="1" shape-rendering="geometricPrecision" style="fill:#8ce631;opacity:255;"></rect><rect id="6-20" x="5" y="19" width="1" height="1" shape-rendering="geometricPrecision" style="fill:#8ce631;opacity:255;"></rect><rect id="7-20" x="6" y="19" width="1" height="1" shape-rendering="geometricPrecision" style="fill:#5a9c42;opacity:255;"></rect><rect id="8-20" x="7" y="19" width="1" height="1" shape-rendering="geometricPrecision" style="fill:#414141;opacity:255;"></rect><rect id="9-20" x="8" y="19" width="1" height="1" shape-rendering="geometricPrecision" style="fill:#dec529;opacity:255;"></rect><rect id="10-20" x="9" y="19" width="1" height="1" shape-rendering="geometricPrecision" style="fill:#73c53a;opacity:255;"></rect><rect id="11-20" x="10" y="19" width="1" height="1" shape-rendering="geometricPrecision" style="fill:#dec529;opacity:255;"></rect><rect id="12-20" x="11" y="19" width="1" height="1" shape-rendering="geometricPrecision" style="fill:#414141;opacity:255;"></rect><rect id="13-20" x="12" y="19" width="1" height="1" shape-rendering="geometricPrecision" style="fill:#5a9c42;opacity:255;"></rect><rect id="14-20" x="13" y="19" width="1" height="1" shape-rendering="geometricPrecision" style="fill:#414141;opacity:255;"></rect><rect id="15-20" x="14" y="19" width="1" height="1" shape-rendering="geometricPrecision" style="fill:#dec529;opacity:255;"></rect><rect id="16-20" x="15" y="19" width="1" height="1" shape-rendering="geometricPrecision" style="fill:#000000;opacity:255;"></rect><rect id="2-21" x="1" y="20" width="1" height="1" shape-rendering="geometricPrecision" style="fill:#000000;opacity:255;"></rect><rect id="3-21" x="2" y="20" width="1" height="1" shape-rendering="geometricPrecision" style="fill:#73c53a;opacity:255;"></rect><rect id="4-21" x="3" y="20" width="1" height="1" shape-rendering="geometricPrecision" style="fill:#8ce631;opacity:255;"></rect><rect id="5-21" x="4" y="20" width="1" height="1" shape-rendering="geometricPrecision" style="fill:#8ce631;opacity:255;"></rect><rect id="6-21" x="5" y="20" width="1" height="1" shape-rendering="geometricPrecision" style="fill:#73c53a;opacity:255;"></rect><rect id="7-21" x="6" y="20" width="1" height="1" shape-rendering="geometricPrecision" style="fill:#5a9c42;opacity:255;"></rect><rect id="8-21" x="7" y="20" width="1" height="1" shape-rendering="geometricPrecision" style="fill:#000000;opacity:255;"></rect><rect id="9-21" x="8" y="20" width="1" height="1" shape-rendering="geometricPrecision" style="fill:#000000;opacity:255;"></rect><rect id="10-21" x="9" y="20" width="1" height="1" shape-rendering="geometricPrecision" style="fill:#000000;opacity:255;"></rect><rect id="11-21" x="10" y="20" width="1" height="1" shape-rendering="geometricPrecision" style="fill:#000000;opacity:255;"></rect><rect id="12-21" x="11" y="20" width="1" height="1" shape-rendering="geometricPrecision" style="fill:#dec529;opacity:255;"></rect><rect id="13-21" x="12" y="20" width="1" height="1" shape-rendering="geometricPrecision" style="fill:#414141;opacity:255;"></rect><rect id="14-21" x="13" y="20" width="1" height="1" shape-rendering="geometricPrecision" style="fill:#dec529;opacity:255;"></rect><rect id="15-21" x="14" y="20" width="1" height="1" shape-rendering="geometricPrecision" style="fill:#000000;opacity:255;"></rect><rect id="2-22" x="1" y="21" width="1" height="1" shape-rendering="geometricPrecision" style="fill:#000000;opacity:255;"></rect><rect id="3-22" x="2" y="21" width="1" height="1" shape-rendering="geometricPrecision" style="fill:#5a9c42;opacity:255;"></rect><rect id="4-22" x="3" y="21" width="1" height="1" shape-rendering="geometricPrecision" style="fill:#73c53a;opacity:255;"></rect><rect id="5-22" x="4" y="21" width="1" height="1" shape-rendering="geometricPrecision" style="fill:#73c53a;opacity:255;"></rect><rect id="6-22" x="5" y="21" width="1" height="1" shape-rendering="geometricPrecision" style="fill:#5a9c42;opacity:255;"></rect><rect id="7-22" x="6" y="21" width="1" height="1" shape-rendering="geometricPrecision" style="fill:#000000;opacity:255;"></rect><rect id="12-22" x="11" y="21" width="1" height="1" shape-rendering="geometricPrecision" style="fill:#000000;opacity:255;"></rect><rect id="13-22" x="12" y="21" width="1" height="1" shape-rendering="geometricPrecision" style="fill:#000000;opacity:255;"></rect><rect id="14-22" x="13" y="21" width="1" height="1" shape-rendering="geometricPrecision" style="fill:#000000;opacity:255;"></rect><rect id="3-23" x="2" y="22" width="1" height="1" shape-rendering="geometricPrecision" style="fill:#000000;opacity:255;"></rect><rect id="4-23" x="3" y="22" width="1" height="1" shape-rendering="geometricPrecision" style="fill:#5a9c42;opacity:255;"></rect><rect id="5-23" x="4" y="22" width="1" height="1" shape-rendering="geometricPrecision" style="fill:#5a9c42;opacity:255;"></rect><rect id="6-23" x="5" y="22" width="1" height="1" shape-rendering="geometricPrecision" style="fill:#414141;opacity:255;"></rect><rect id="7-23" x="6" y="22" width="1" height="1" shape-rendering="geometricPrecision" style="fill:#dec529;opacity:255;"></rect><rect id="8-23" x="7" y="22" width="1" height="1" shape-rendering="geometricPrecision" style="fill:#000000;opacity:255;"></rect><rect id="3-24" x="2" y="23" width="1" height="1" shape-rendering="geometricPrecision" style="fill:#000000;opacity:255;"></rect><rect id="4-24" x="3" y="23" width="1" height="1" shape-rendering="geometricPrecision" style="fill:#dec529;opacity:255;"></rect><rect id="5-24" x="4" y="23" width="1" height="1" shape-rendering="geometricPrecision" style="fill:#414141;opacity:255;"></rect><rect id="6-24" x="5" y="23" width="1" height="1" shape-rendering="geometricPrecision" style="fill:#dec529;opacity:255;"></rect><rect id="7-24" x="6" y="23" width="1" height="1" shape-rendering="geometricPrecision" style="fill:#000000;opacity:255;"></rect><rect id="4-25" x="3" y="24" width="1" height="1" shape-rendering="geometricPrecision" style="fill:#000000;opacity:255;"></rect><rect id="5-25" x="4" y="24" width="1" height="1" shape-rendering="geometricPrecision" style="fill:#000000;opacity:255;"></rect><rect id="6-25" x="5" y="24" width="1" height="1" shape-rendering="geometricPrecision" style="fill:#000000;opacity:255;"></rect></svg>