<svg xmlns="http://www.w3.org/2000/svg" xmlns:xlink="http://www.w3.org/1999/xlink" fill="none" viewBox="0 0 512 512">
  <!-- Background -->
  <rect width="512" height="512" fill="#1e1e2e" rx="80"/>
  
  <!-- Gradient definitions from official Hyprland logo -->
  <defs>
    <linearGradient gradientUnits="userSpaceOnUse" y2="450" x2="256" y1="100" x1="256" id="hypr-gradient">
      <stop stop-color="#00a8f4" offset="0"/>
      <stop stop-color="#00e5d0" offset="1"/>
    </linearGradient>
  </defs>
  
  <!-- Official Hyprland droplet shape (original scale and position) -->
  <g transform="translate(156, 56) scale(0.95)">
    <path d="M211.03,191.55c-9.09-20.56-22.42-39.71-35.29-58.22-2.38-3.41-4.62-6.64-6.84-9.87-3.15-4.6-7.42-10.49-12.36-17.31-11.29-15.59-28.92-39.62-40.84-59.36v49.42c12.28,17.62,24.2,33.49,30.57,42.78,13.94,20.33,30.09,42,39.67,63.66,28.78,65.13-11.7,128.85-82.05,129.61h-1.26c-.18,0-.35,0-.53,0-.18,0-.35,0-.53,0h-1.26c-70.35-.76-110.84-64.48-82.05-129.61,9.58-21.67,25.72-43.33,39.67-63.66,6.36-9.28,18.28-25.16,30.57-42.78v-49.42c-11.92,19.75-29.55,43.78-40.84,59.36-4.94,6.81-9.21,12.7-12.36,17.31-2.22,3.23-4.46,6.45-6.84,9.87-12.88,18.52-26.21,37.67-35.29,58.22-8.83,19.97-12.7,40.38-11.49,60.65,1.16,19.65,7.28,38.57,17.68,54.73,10.28,15.97,24.74,29.21,41.81,38.29,17.64,9.37,37.44,14.25,58.87,14.48.52,0,1.03,0,1.56,0,.18,0,.35,0,.53,0,.18,0,.35,0,.53,0,.52,0,1.03,0,1.56,0,21.43-.23,41.23-5.1,58.87-14.48,17.07-9.08,31.52-22.32,41.81-38.29,10.4-16.16,16.52-35.08,17.68-54.73,1.2-20.27-2.67-40.68-11.49-60.65Z" 
    fill="url(#hypr-gradient)"/>
  </g>
  
  <!-- Larger lightning bolt in the center -->
  <path 
    fill="#fbbf24" 
    d="M 275 190 l-50 85 h35 l-42 95 85-115 h-42 z"
    stroke="#1e1e2e"
    stroke-width="6"
    stroke-linejoin="round"/>
</svg>
